<svg id="Capa_1" enable-background="new 0 0 512.017 512.017" height="512" viewBox="0 0 512.017 512.017" width="512" xmlns="http://www.w3.org/2000/svg"><g id="XMLID_1544_"><path id="XMLID_1917_" d="m323.685 172.132 14.094 28.557 31.515 4.579c4.597.668 6.432 6.317 3.106 9.559l-22.804 22.229 5.383 31.387c.785 4.578-4.02 8.07-8.132 5.908l-28.187-14.819-28.187 14.819c-4.112 2.162-8.917-1.33-8.132-5.908l5.383-31.387-22.804-22.229c-3.326-3.242-1.491-8.891 3.106-9.559l31.515-4.579 14.094-28.557c2.055-4.165 7.994-4.165 10.05 0z" fill="#ffda8f"/><path id="XMLID_1916_" d="m433.957 14.226 19.026 38.55 42.543 6.182c6.206.902 8.683 8.528 4.193 12.905l-30.784 30.007 7.267 42.371c1.06 6.18-5.427 10.894-10.977 7.976l-38.052-20.005-38.052 20.005c-5.55 2.918-12.037-1.795-10.977-7.976l7.267-42.371-30.784-30.007c-4.49-4.377-2.013-12.003 4.193-12.905l42.543-6.182 19.026-38.55c2.774-5.624 10.793-5.624 13.568 0z" fill="#ffda8f"/><path id="XMLID_493_" d="m409.667 403.009c-135.862 0-246-110.138-246-246 0-53.123 16.84-102.312 45.471-142.523-113.446 21.884-199.138 121.687-199.138 241.522 0 135.862 110.138 246 246 246 82.739 0 155.937-40.848 200.529-103.477-15.172 2.927-30.835 4.478-46.862 4.478z" fill="#cbcbf0"/><g id="XMLID_62_"><path id="XMLID_552_" d="m256 512.008c-68.38 0-132.667-26.628-181.019-74.981-48.353-48.352-74.981-112.639-74.981-181.019 0-122.472 87.159-228.176 207.244-251.341 4.015-.776 8.096.973 10.306 4.412s2.105 7.877-.266 11.208c-28.535 40.076-43.617 87.354-43.617 136.723 0 130.131 105.87 236 236 236 15.059 0 30.188-1.445 44.968-4.296 4.014-.775 8.095.973 10.306 4.412 2.21 3.439 2.105 7.877-.266 11.208-23.202 32.586-54.13 59.651-89.442 78.27-36.486 19.235-77.717 29.404-119.233 29.404zm-68.776-481.813c-98.216 29.818-167.224 121.177-167.224 225.813 0 130.131 105.869 236 236 236 67.993 0 132.577-29.548 177.146-80.075-7.811.715-15.653 1.075-23.479 1.075-68.38 0-132.667-26.628-181.02-74.98s-74.981-112.639-74.981-181.02c.001-44.957 11.536-88.323 33.558-126.813z" fill="#8180dd"/></g><g id="XMLID_91_"><path id="XMLID_549_" d="m349.47 285.013c-2.48 0-4.973-.598-7.276-1.81l-23.534-12.372-23.534 12.373c-5.296 2.784-11.593 2.329-16.434-1.188-4.84-3.517-7.219-9.365-6.208-15.262l4.495-26.206-19.04-18.559c-4.285-4.176-5.797-10.305-3.949-15.996 1.849-5.69 6.676-9.76 12.597-10.62l26.312-3.823 11.767-23.843c2.647-5.365 8.01-8.698 13.993-8.698s11.345 3.333 13.993 8.699l11.767 23.843 26.312 3.823c5.921.86 10.748 4.93 12.597 10.621 1.849 5.69.335 11.82-3.95 15.996l-19.039 18.558 4.495 26.206c1.012 5.896-1.367 11.745-6.207 15.262-2.735 1.986-5.936 2.995-9.157 2.996zm-71.193-71.129 16.426 16.012c2.357 2.297 3.433 5.607 2.876 8.851l-3.877 22.609 20.304-10.675c2.913-1.531 6.394-1.531 9.307 0l20.304 10.674-3.877-22.609c-.557-3.244.519-6.554 2.876-8.851l16.426-16.012-22.701-3.298c-3.257-.473-6.073-2.519-7.529-5.47l-10.152-20.57-10.152 20.57c-1.457 2.951-4.272 4.997-7.529 5.47z" fill="#8180dd"/></g><g id="XMLID_228_"><path id="XMLID_546_" d="m468.761 163.104c-2.792 0-5.598-.673-8.19-2.037l-33.398-17.558-33.398 17.558c-5.96 3.135-13.05 2.622-18.499-1.337s-8.126-10.542-6.988-17.18l6.378-37.189-27.02-26.338c-4.823-4.701-6.526-11.601-4.445-18.006 2.082-6.406 7.515-10.986 14.18-11.955l37.34-5.426 16.7-33.836c2.98-6.039 9.016-9.792 15.751-9.792s12.771 3.752 15.752 9.792l16.699 33.836 37.34 5.426c6.666.969 12.099 5.55 14.18 11.955 2.082 6.406.378 13.305-4.445 18.006l-27.02 26.338 6.379 37.189c1.139 6.638-1.539 13.221-6.988 17.18-3.078 2.238-6.681 3.374-10.308 3.374zm-103.622-94.96 27.252 26.565c2.357 2.297 3.433 5.607 2.876 8.851l-6.433 37.51 33.686-17.709c2.913-1.532 6.394-1.532 9.307 0l33.686 17.709-6.434-37.51c-.557-3.244.519-6.554 2.876-8.852l27.252-26.564-37.662-5.473c-3.257-.473-6.073-2.519-7.529-5.47l-16.843-34.127-16.843 34.128c-1.457 2.951-4.272 4.997-7.529 5.47z" fill="#8180dd"/></g><g fill="#fff"><circle id="XMLID_233_" cx="165.673" cy="409.008" r="25"/><circle id="XMLID_236_" cx="246.554" cy="437.094" r="16.667"/></g></g></svg>